# xmcd
#
# Track frame offsets:
#	150
#	26765
#	34292
#	59112
#	80320
#	92725
#	110767
#	118892
#	136210
#	145610
#	166167
#	186002
#
# Disc length: 2812 seconds
#
# Revision: 0
# Processed by: cddbd v1.4PL0 Copyright (c) Steve Scherf et al.
# Submitted via: dBpowerAMP V4.0
#
DISCID=a70afa0c
DTITLE=Various Artist - Jim Dickinson Field Recordings - Delta Experimental Project vol 3
DYEAR=1900
DGENRE=
TTITLE0=Alec Teal and Butter Biscuit - Roll Me Over Slow
TTITLE1=Johnny Woods - So Many Cold Mornings
TTITLE2=Furry Lewis - Furrys Blues
TTITLE3=Sleepy John Estes - Broke And Hungry
TTITLE4=Otha Turner - My Babe
TTITLE5=Mose Vinson - Old Blue Jumped A Rabbit
TTITLE6=Furry Lewis - Turkey In The Straw
TTITLE7=Sleepy John Estes - Floating Bridge
TTITLE8=Johnny Woods - Lonesome Feelin
TTITLE9=Mose Vinson - Barrel House Blues-Cryin Wont Make Me Stay
TTITLE10=Sleepy John Estes - Race That You Dont Run
TTITLE11=Tate Country Singers ft Otha Turner - Jesus Is On The Mainline
EXTD=
EXTT0=
EXTT1=
EXTT2=
EXTT3=
EXTT4=
EXTT5=
EXTT6=
EXTT7=
EXTT8=
EXTT9=
EXTT10=
EXTT11=
PLAYORDER=
